<?xml version="1.0" standalone="no"?>
<!DOCTYPE svg PUBLIC "-//W3C//DTD SVG 20010904//EN"
 "http://www.w3.org/TR/2001/REC-SVG-20010904/DTD/svg10.dtd">
<svg version="1.0" xmlns="http://www.w3.org/2000/svg"
 width="499.000000pt" height="500.000000pt" viewBox="0 0 499.000000 500.000000"
 preserveAspectRatio="xMidYMid meet">

<g transform="translate(0.000000,500.000000) scale(0.100000,-0.100000)"
fill="url('#MyGradient')" stroke="none">

<defs>
    <linearGradient id="MyGradient" y2="1">
        <stop offset="0%" stop-color="darkred"></stop>
        <stop offset="33.33%" stop-color="purple"></stop>
        <stop offset="66.66%" stop-color="orange"></stop>
    </linearGradient>
</defs>
<path d="M2365 4559 c-288 -14 -596 -95 -870 -229 -336 -163 -686 -477 -875
-785 -149 -242 -248 -515 -295 -810 -22 -136 -31 -493 -16 -620 41 -352 148
-659 319 -915 100 -150 180 -239 301 -337 232 -186 508 -274 721 -229 42 9
115 35 165 60 169 84 258 182 335 368 23 57 45 107 49 111 4 4 64 9 132 11
204 6 458 67 702 167 445 184 754 620 933 1315 59 232 78 388 78 644 0 241
-13 356 -59 549 -36 147 -156 454 -171 438 -3 -2 0 -42 6 -88 6 -46 13 -152
17 -234 5 -122 3 -152 -8 -161 -8 -5 -66 -21 -129 -33 -278 -56 -522 -142
-809 -285 -80 -41 -164 -81 -186 -90 l-40 -16 40 36 c21 19 86 65 143 102 56
37 98 68 92 70 -14 5 -105 -26 -165 -56 -68 -33 -169 -109 -235 -176 -30 -31
-61 -56 -70 -56 -9 0 -50 29 -92 64 -197 163 -343 225 -537 226 -57 0 -71 4
-125 39 -133 84 -272 138 -439 171 -147 29 -147 29 -147 43 0 6 15 24 33 38
291 232 509 346 817 428 158 42 281 60 461 67 363 15 711 -64 1025 -232 56
-30 106 -54 113 -54 7 0 11 29 11 89 0 70 -4 93 -17 109 -23 27 -247 121 -393
165 -276 84 -508 111 -815 96z m-1172 -913 c137 -36 241 -78 337 -136 215
-130 393 -347 470 -578 40 -121 39 -139 -13 -204 -69 -85 -87 -114 -87 -140 0
-27 85 -163 102 -163 7 0 43 51 82 113 239 379 622 696 1076 890 163 70 309
115 509 157 128 27 177 33 185 25 18 -18 13 -457 -8 -629 -20 -167 -77 -405
-131 -541 -57 -146 -177 -385 -244 -486 -196 -296 -469 -468 -886 -557 -152
-33 -314 -52 -327 -39 -6 6 -6 31 1 68 15 82 14 259 -3 347 -56 292 -359 540
-833 681 -184 55 -207 47 -218 -76 -9 -93 10 -323 36 -452 78 -384 310 -627
673 -705 93 -20 95 -24 76 -111 -34 -152 -147 -260 -317 -304 -211 -55 -463
46 -695 277 -120 119 -203 238 -288 409 -106 214 -170 428 -190 637 -13 129
-12 456 0 561 41 334 172 635 403 929 l51 64 70 -6 c39 -3 115 -17 169 -31z
m893 -324 c21 -16 54 -43 72 -61 46 -47 122 -155 122 -176 0 -9 -16 -33 -35
-52 -40 -40 -59 -35 -69 20 -8 43 -54 138 -104 216 -59 90 -55 103 14 53z
m-585 -1052 c195 -72 397 -200 479 -303 55 -68 103 -165 124 -248 19 -78 22
-223 4 -217 -6 2 -35 42 -64 89 -109 176 -310 385 -395 411 -54 16 -89 -7 -89
-59 0 -34 8 -45 92 -123 149 -139 330 -383 315 -424 -13 -33 -156 22 -278 105
-171 117 -261 266 -294 488 -15 98 -20 266 -9 295 8 22 21 20 115 -14z"/>
<path d="M3236 2868 c-52 -53 -347 -364 -578 -612 l-56 -61 -119 117 c-131
130 -164 158 -186 158 -19 0 -137 -126 -137 -147 0 -9 55 -71 123 -137 67 -67
149 -156 182 -200 104 -136 108 -140 131 -126 10 7 62 60 114 118 169 187 559
599 666 705 57 56 104 109 104 118 0 16 -148 129 -169 129 -6 0 -40 -28 -75
-62z"/>
<path d="M1814 4131 c-126 -57 -164 -250 -66 -343 58 -56 95 -71 167 -66 77 5
133 38 176 105 106 168 -94 387 -277 304z"/>
<path d="M2345 3921 c-43 -19 -100 -78 -116 -118 -26 -68 -1 -187 50 -240 60
-63 170 -77 251 -32 94 52 135 170 96 274 -42 109 -175 164 -281 116z"/>
<path d="M4560 3339 c0 -7 -19 -61 -42 -121 l-41 -108 36 -122 c72 -241 88
-346 88 -579 0 -259 -23 -412 -98 -644 -78 -243 -215 -500 -363 -680 -116
-142 -306 -312 -470 -423 -516 -347 -1251 -440 -1803 -226 -49 19 -99 34 -111
34 -26 0 -269 -50 -276 -57 -7 -7 22 -22 165 -85 215 -95 411 -150 637 -178
147 -19 503 -8 653 19 352 63 684 213 974 439 144 111 354 331 458 477 120
168 246 415 306 602 130 396 143 846 37 1258 -45 173 -122 397 -138 403 -7 2
-12 -2 -12 -9z"/>
</g>
</svg>
