<?xml version="1.0" standalone="no"?>
<!DOCTYPE svg PUBLIC "-//W3C//DTD SVG 20010904//EN"
 "http://www.w3.org/TR/2001/REC-SVG-20010904/DTD/svg10.dtd">
<svg version="1.0" xmlns="http://www.w3.org/2000/svg"
 width="231.000000pt" height="224.000000pt" viewBox="0 0 231.000000 224.000000"
 preserveAspectRatio="xMidYMid meet">

<g transform="translate(0.000000,224.000000) scale(0.100000,-0.100000)"
fill="url('#MyGradient')" stroke="none">
<defs>
    <linearGradient id="MyGradient" y2="1">
        <stop offset="0%" stop-color="green"></stop>
        <stop offset="50%" stop-color="#adebb3"></stop>
    </linearGradient>
</defs>
<path d="M1753 1856 c-29 -24 -38 -26 -130 -26 l-100 0 -44 -47 c-24 -27 -84
-92 -133 -146 l-89 -97 -380 2 -381 3 -33 104 c-17 57 -38 110 -45 117 -12 12
-322 94 -354 94 -19 0 -54 -41 -54 -62 0 -37 36 -56 179 -89 137 -33 142 -35
150 -64 5 -16 23 -75 41 -130 17 -55 69 -221 115 -370 46 -148 107 -344 135
-435 29 -91 59 -187 67 -215 24 -81 40 -105 68 -105 24 0 25 -2 19 -52 -19
-177 213 -258 313 -109 18 27 23 48 23 97 l0 64 225 0 225 0 0 -64 c0 -75 24
-118 85 -153 118 -67 260 24 253 161 -2 44 1 50 22 58 42 15 53 57 26 94 -14
18 -35 19 -577 24 l-563 5 -8 34 c-5 18 -7 35 -5 37 3 4 118 16 512 54 554 53
613 61 629 79 12 13 69 195 116 366 4 17 27 92 49 168 23 76 41 144 41 152 0
8 -9 24 -20 35 -17 17 -33 20 -111 20 -83 0 -94 2 -111 23 -15 16 -31 22 -64
22 -53 0 -82 -25 -91 -78 -5 -31 -1 -40 25 -67 40 -39 91 -41 128 -5 19 19 35
25 71 25 39 0 45 -3 40 -17 -3 -10 -32 -110 -65 -223 -33 -113 -69 -232 -79
-265 l-19 -60 -59 -7 c-33 -3 -112 -12 -175 -18 -63 -6 -155 -15 -205 -20 -49
-5 -142 -14 -205 -20 -63 -6 -153 -15 -200 -20 -47 -5 -123 -12 -170 -15 l-85
-6 -29 93 c-15 51 -31 105 -33 121 l-5 27 277 0 278 0 53 -40 53 -40 108 0
c102 0 109 -2 132 -25 26 -28 84 -34 112 -12 50 39 48 115 -4 148 -40 25 -84
19 -114 -16 -20 -23 -29 -25 -113 -25 l-91 0 -50 40 -51 40 -301 0 c-166 0
-307 4 -313 8 -6 4 -15 22 -19 40 l-7 32 477 0 477 0 30 -25 c40 -34 82 -33
119 4 37 37 38 79 3 120 -34 41 -90 43 -125 6 l-24 -25 -492 0 -491 0 -16 47
c-9 26 -16 50 -16 55 0 4 193 8 428 8 l428 0 133 145 132 145 204 0 c174 0
204 -2 209 -15 3 -9 22 -23 41 -31 70 -29 135 26 120 103 -12 63 -100 90 -148
45 -23 -21 -31 -22 -239 -22 l-216 0 -55 -57 c-30 -32 -90 -97 -133 -145 l-78
-88 -427 0 -427 0 -15 45 c-9 25 -13 45 -9 46 4 0 178 2 387 5 290 4 384 8
395 18 13 11 82 86 204 224 l38 42 85 0 c76 0 88 -3 115 -25 63 -53 147 -15
148 66 0 50 -26 79 -76 86 -33 4 -45 1 -71 -21z m93 -52 c8 -32 -15 -59 -44
-50 -43 14 -33 76 13 76 18 0 26 -7 31 -26z m378 -166 c15 -25 -3 -52 -37 -56
-21 -3 -28 2 -33 22 -12 49 43 76 70 34z m-356 -190 c22 -22 14 -57 -14 -64
-38 -10 -61 17 -46 51 12 27 40 33 60 13z m-160 -280 c32 -32 -8 -80 -48 -58
-34 18 -19 70 20 70 9 0 21 -5 28 -12z m-34 -231 c36 -26 -4 -84 -41 -61 -25
16 -28 45 -7 61 10 7 21 13 24 13 3 0 14 -6 24 -13z m-684 -577 c11 -11 20
-28 20 -37 0 -46 -79 -73 -100 -34 -14 28 -12 52 7 73 21 24 48 23 73 -2z
m784 4 c19 -18 21 -65 4 -82 -21 -21 -66 -14 -83 12 -35 53 34 115 79 70z"/>
</g>
</svg>
