<?xml version="1.0" standalone="no"?>
<!DOCTYPE svg PUBLIC "-//W3C//DTD SVG 20010904//EN"
 "http://www.w3.org/TR/2001/REC-SVG-20010904/DTD/svg10.dtd">
<svg version="1.0" xmlns="http://www.w3.org/2000/svg"
 width="500.000000pt" height="500.000000pt" viewBox="0 0 500.000000 500.000000"
 preserveAspectRatio="xMidYMid meet">

<g transform="translate(0.000000,500.000000) scale(0.100000,-0.100000)"
fill="url('#MyGradient')" stroke="none">
<defs>
    <linearGradient id="MyGradient" y2="1">
        <stop offset="0%" stop-color="darkred"></stop>
        <stop offset="33.33%" stop-color="purple"></stop>
        <stop offset="66.66%" stop-color="orange"></stop>
    </linearGradient>
</defs>
<path d="M2335 4764 c-546 -57 -1037 -285 -1391 -646 -146 -148 -166 -171
-267 -313 -149 -208 -273 -474 -337 -721 -47 -183 -61 -284 -67 -500 -9 -302
14 -474 102 -772 72 -246 154 -424 278 -606 80 -117 240 -283 330 -342 90 -60
233 -127 317 -150 94 -26 324 -26 400 0 245 83 396 234 481 478 15 44 29 82
32 84 2 3 56 7 118 10 455 20 847 165 1129 416 311 278 488 646 584 1218 28
170 37 281 43 550 5 258 -5 431 -27 454 -20 20 -391 -48 -598 -110 -193 -57
-241 -74 -382 -132 -152 -62 -309 -139 -387 -189 -29 -18 -54 -33 -57 -33 -2
0 -42 -23 -88 -52 -205 -126 -386 -283 -518 -449 -125 -156 -228 -345 -203
-370 5 -5 61 -33 124 -62 158 -73 249 -135 351 -238 94 -94 202 -250 233 -334
30 -82 39 -86 68 -29 39 75 182 240 388 447 172 172 219 210 219 173 0 -7 9
-25 20 -39 25 -32 25 -75 0 -155 -12 -38 -20 -92 -20 -133 0 -58 -3 -71 -17
-75 -48 -14 -103 -50 -103 -66 0 -24 26 -23 57 2 14 11 37 20 50 20 20 0 24
-4 21 -22 -2 -13 -11 -24 -23 -26 -11 -2 -27 -11 -36 -19 -9 -8 -30 -18 -45
-22 -33 -9 -44 -38 -18 -48 12 -4 24 2 38 19 12 14 32 29 46 33 14 4 31 12 38
18 22 18 38 -7 24 -38 -28 -62 2 -89 36 -33 17 29 15 47 -23 148 -13 35 -15
62 -10 123 6 78 27 147 44 147 5 0 24 -20 42 -45 33 -43 69 -58 84 -35 11 17
22 11 69 -37 56 -56 71 -51 25 9 -44 58 -58 68 -95 68 -25 0 -40 10 -73 45
-63 68 -57 116 31 233 36 48 44 82 20 82 -5 0 -35 -38 -66 -85 -32 -47 -61
-85 -65 -85 -4 0 -18 11 -31 25 -21 23 -22 26 -7 49 9 13 46 50 82 82 71 63
126 148 145 226 10 40 9 52 -8 91 -13 29 -31 51 -51 61 -53 28 -66 22 -89 -41
-24 -64 -104 -173 -127 -173 -9 0 -26 23 -39 54 -23 51 -52 80 -122 122 -18
11 -18 12 -1 50 10 21 27 44 37 51 10 7 16 21 14 35 -3 13 10 52 28 88 28 56
37 65 63 68 38 5 45 16 45 78 0 57 -12 74 -52 74 -25 0 -32 -7 -49 -46 -10
-26 -34 -65 -52 -87 -17 -22 -43 -61 -57 -87 -35 -66 -140 -190 -167 -197 -33
-8 -53 3 -53 29 0 26 -51 88 -73 88 -37 0 -63 -74 -34 -98 6 -6 28 -12 47 -14
31 -3 35 -6 38 -35 4 -37 8 -39 36 -18 43 33 92 9 80 -39 -9 -37 -72 -40 -110
-5 -27 25 -70 25 -84 -1 -6 -11 -8 -25 -4 -31 3 -6 -16 -32 -43 -57 -27 -26
-60 -64 -72 -84 -24 -41 -39 -45 -101 -29 -19 5 -47 12 -62 15 -34 8 -35 15
-3 62 43 63 29 100 -30 78 -21 -8 -55 -76 -55 -110 0 -22 -3 -25 -22 -21 -45
12 -106 -42 -93 -83 14 -44 93 -39 115 6 15 31 16 32 70 27 74 -6 79 -8 90
-39 6 -14 18 -28 28 -31 9 -2 25 -24 35 -47 10 -24 27 -52 37 -61 18 -16 21
-17 45 -1 14 9 25 21 25 26 0 6 10 10 21 10 43 0 109 55 109 89 0 19 -16 12
-68 -29 -49 -40 -52 -40 -70 -23 -10 10 -27 23 -38 30 -19 11 -19 11 0 25 18
14 18 16 1 41 -16 26 -16 27 19 73 20 26 45 54 56 61 36 26 110 42 164 36 50
-5 54 -4 75 26 24 34 41 40 41 15 0 -9 16 -41 34 -72 59 -96 58 -114 -13 -195
-50 -57 -374 -377 -382 -377 -4 0 -14 8 -21 18 -7 11 -47 56 -88 101 -81 88
-184 163 -319 231 -44 22 -81 44 -81 48 0 17 122 173 185 237 322 324 650 524
1120 680 127 42 405 111 475 117 l35 3 6 -135 c12 -260 -11 -502 -77 -815 -70
-328 -157 -546 -287 -720 -212 -285 -503 -467 -850 -534 -136 -26 -346 -53
-363 -47 -11 4 -14 36 -14 138 -1 264 -29 406 -104 518 -47 69 -185 204 -262
253 -184 119 -489 242 -648 262 -112 14 -130 -24 -124 -259 6 -194 30 -313 93
-460 61 -141 108 -222 179 -307 84 -100 162 -161 281 -219 88 -43 137 -59 259
-85 29 -6 29 -6 23 -67 -12 -133 -108 -258 -252 -329 -98 -48 -175 -63 -280
-55 -99 7 -167 27 -268 76 -285 141 -491 410 -626 816 -81 245 -141 549 -141
712 0 223 54 522 136 750 165 459 515 872 945 1113 169 95 212 114 354 158
200 61 346 87 550 96 275 13 513 -22 786 -117 258 -89 309 -88 309 7 0 55 -22
75 -130 118 -282 114 -536 166 -840 172 -91 2 -183 1 -205 -1z m-70 -2044 c0
-8 -8 -16 -17 -18 -13 -2 -18 3 -18 18 0 15 5 20 18 18 9 -2 17 -10 17 -18z
m325 -134 c-13 -13 -35 7 -25 24 5 8 11 8 21 -1 10 -8 12 -15 4 -23z m-1104
-177 c205 -63 406 -191 508 -324 80 -104 146 -288 146 -408 0 -52 -2 -58 -15
-47 -8 7 -15 16 -15 21 0 21 -205 272 -306 373 -123 125 -162 148 -215 126
-50 -21 -63 -69 -31 -118 9 -14 78 -87 153 -162 159 -158 291 -342 264 -368
-3 -3 -44 6 -90 22 -86 29 -198 96 -276 165 -93 81 -192 256 -223 392 -16 70
-32 309 -23 333 8 22 42 20 123 -5z"/>
<path d="M2350 4420 c0 -71 88 -218 194 -324 60 -62 91 -83 177 -124 140 -68
216 -86 359 -86 134 0 194 14 395 95 123 49 135 51 213 50 75 -1 84 1 107 23
34 34 34 93 0 134 -32 38 -66 44 -113 21 -49 -25 -147 -25 -287 2 -99 18 -543
119 -878 199 -153 36 -167 37 -167 10z m106 -48 c6 -4 21 -29 33 -57 32 -72
160 -192 254 -238 149 -72 336 -103 469 -78 71 14 241 90 255 115 10 17 24 20
106 18 48 -2 57 -5 57 -20 0 -15 -34 -32 -160 -81 -227 -89 -250 -94 -410 -89
-153 6 -230 26 -354 95 -116 64 -236 193 -283 305 -15 34 3 51 33 30z m294
-66 c107 -24 299 -68 425 -96 272 -61 255 -57 255 -70 0 -16 -118 -67 -193
-85 -207 -49 -473 25 -628 176 -43 42 -89 100 -89 113 0 12 37 5 230 -38z
m1010 -155 c16 -31 12 -51 -15 -63 -30 -13 -55 3 -55 36 0 44 50 63 70 27z"/>
<path d="M1664 4330 c-55 -28 -74 -70 -74 -165 l0 -75 -32 0 c-126 0 -224
-106 -203 -219 18 -94 75 -149 185 -177 52 -13 76 -14 127 -6 75 13 104 32
137 93 49 88 28 176 -56 236 -26 19 -48 38 -48 42 0 5 9 16 21 27 28 26 66 92
74 131 9 47 -11 100 -45 118 -37 19 -37 19 -86 -5z m80 -67 c6 -23 5 -42 -5
-65 -16 -39 -66 -98 -84 -98 -15 0 -25 31 -25 77 0 98 90 167 114 86z m-33
-276 c50 -50 36 -128 -35 -199 -77 -76 -186 -14 -186 105 0 77 28 118 97 142
43 15 72 4 124 -48z m-275 -59 c0 -24 3 -60 7 -82 11 -50 -12 -45 -32 8 -11
30 -12 44 -2 76 15 52 29 51 27 -2z m329 -125 c-27 -50 -38 -40 -13 13 13 25
24 40 27 33 2 -7 -4 -27 -14 -46z"/>
<path d="M2121 4295 c-56 -65 -66 -178 -20 -251 24 -39 24 -39 -22 -63 -110
-59 -131 -196 -49 -310 63 -86 181 -111 272 -59 87 52 135 162 108 251 -13 43
-79 117 -105 117 -7 0 -25 4 -39 9 l-24 10 15 58 c24 93 6 197 -45 256 -24 27
-57 21 -91 -18z m82 -65 c13 -49 3 -168 -15 -187 -13 -13 -18 -10 -39 24 -31
51 -34 150 -5 182 27 30 48 23 59 -19z m48 -290 c91 -17 137 -92 110 -181 -25
-83 -131 -144 -206 -119 -37 12 -100 76 -115 116 -15 39 -12 97 7 124 43 62
100 79 204 60z"/>
<path d="M1085 3683 c-23 -22 -16 -110 15 -181 19 -43 30 -55 73 -77 33 -16
68 -25 99 -25 42 0 50 3 58 24 5 13 7 32 5 42 -2 11 -7 41 -10 67 -5 36 -15
59 -41 87 -63 70 -162 101 -199 63z"/>
<path d="M1852 3688 c-6 -7 -19 -37 -31 -67 -40 -106 -88 -156 -209 -215 -111
-55 -188 -71 -347 -71 -167 0 -239 17 -407 97 -59 28 -113 48 -121 45 -8 -3
-20 -26 -27 -52 -16 -58 -4 -85 61 -132 37 -26 49 -42 57 -76 46 -179 357
-320 672 -305 63 3 94 9 107 20 10 9 59 36 108 59 123 58 214 148 273 271 23
47 42 95 42 106 0 31 -35 37 -76 13 -19 -12 -48 -21 -65 -21 -32 0 -37 -14
-13 -41 8 -9 16 -37 17 -62 4 -92 -104 -189 -268 -243 -82 -27 -102 -29 -230
-29 -161 0 -256 21 -360 80 -66 37 -121 88 -111 103 6 10 13 9 146 -29 117
-33 309 -37 425 -10 149 36 240 86 297 165 35 49 37 100 6 133 l-22 23 41 39
c50 48 99 161 83 191 -12 23 -33 26 -48 8z m-1051 -294 c61 -38 231 -91 339
-104 169 -22 331 2 495 73 59 25 86 32 103 26 33 -13 28 -49 -15 -93 -100
-103 -360 -161 -549 -122 -43 9 -137 36 -209 60 -108 36 -131 47 -133 65 -2
11 -9 21 -17 21 -21 0 -75 56 -75 79 0 27 12 26 61 -5z"/>
<path d="M4469 3569 c-43 -46 -43 -44 46 -234 45 -96 102 -270 126 -383 52
-257 64 -561 29 -764 -30 -181 -88 -388 -141 -511 -186 -429 -454 -750 -817
-976 -314 -196 -635 -296 -1034 -321 -344 -22 -688 36 -1016 171 -29 12 -37
12 -70 -6 -46 -25 -64 -81 -37 -121 40 -61 393 -169 688 -210 159 -23 555 -15
717 14 347 62 615 166 885 343 223 147 391 305 557 527 225 301 370 640 435
1015 14 80 18 158 18 367 -1 244 -3 277 -27 410 -43 231 -113 451 -199 622
-47 94 -106 115 -160 57z"/>
<path d="M3451 3525 c-17 -15 -31 -32 -31 -39 0 -7 -20 -36 -45 -65 -25 -29
-45 -61 -45 -70 0 -10 -11 -31 -25 -47 -22 -26 -27 -28 -46 -16 -25 16 -34 10
-21 -14 18 -33 -11 -68 -82 -99 -107 -47 -78 -64 35 -21 42 16 68 32 76 47 7
13 25 34 40 46 l28 22 32 -31 c29 -28 35 -30 58 -20 14 7 28 19 32 28 10 26
-15 64 -52 80 -31 13 -34 17 -25 34 38 70 189 66 250 -8 26 -31 30 -43 25 -73
-11 -62 56 -120 103 -90 27 17 9 64 -36 94 -59 40 -55 66 12 83 48 12 69 29
63 49 -5 14 -82 18 -104 7 -13 -7 -45 -3 -108 13 -49 13 -92 24 -94 24 -3 1 5
10 18 22 27 26 25 63 -5 67 -12 2 -35 -9 -53 -23z m-36 -245 c11 -17 -5 -32
-21 -19 -7 6 -11 15 -8 20 7 12 21 11 29 -1z"/>
<path d="M4308 3193 c-51 -6 -63 -23 -48 -68 16 -48 63 -101 113 -127 45 -23
151 -36 161 -20 9 14 -13 121 -31 148 -33 52 -108 77 -195 67z"/>
<path d="M642 2933 c-37 -73 -9 -206 61 -287 30 -34 83 -163 73 -174 -5 -4
-23 10 -40 30 -41 47 -112 79 -179 81 -60 1 -77 -6 -77 -34 0 -30 87 -117 130
-130 36 -11 126 -8 165 5 17 6 25 -4 58 -69 20 -41 37 -80 37 -85 0 -18 -21
-11 -60 20 -77 61 -174 79 -221 41 l-24 -19 31 -38 c50 -62 89 -76 203 -75
l99 1 17 -32 c10 -18 64 -126 120 -239 102 -203 124 -237 145 -224 16 10 12
23 -33 98 -56 92 -210 413 -205 427 2 6 26 27 53 48 35 26 55 51 67 82 21 56
23 149 3 176 -14 19 -15 19 -52 -2 -26 -15 -47 -39 -66 -75 -24 -46 -27 -59
-21 -111 9 -82 -14 -79 -49 7 -36 87 -35 110 3 123 67 24 119 113 120 203 0
77 -14 87 -72 50 -69 -44 -87 -75 -90 -161 -3 -82 -18 -99 -37 -43 -7 21 -19
53 -28 71 -13 30 -13 37 1 67 32 66 10 173 -50 243 -38 44 -67 53 -82 25z"/>
<path d="M3645 2888 c-12 -70 -42 -117 -96 -150 -27 -17 -49 -35 -49 -40 0
-19 31 -19 56 1 15 12 39 21 54 21 29 0 60 27 60 51 0 9 16 23 36 32 40 20 44
50 6 55 -14 2 -22 10 -22 22 0 61 -35 67 -45 8z"/>
<path d="M4312 2743 c-42 -66 -52 -96 -52 -159 0 -30 -3 -54 -7 -54 -3 0 -21
12 -40 26 -34 26 -63 26 -63 1 0 -8 16 -25 35 -38 68 -46 126 -173 94 -204
-35 -36 -119 62 -139 163 -15 70 -18 76 -36 61 -18 -15 -18 -90 0 -133 8 -19
40 -71 72 -116 45 -65 58 -92 61 -129 2 -25 -1 -53 -6 -61 -32 -47 -131 102
-134 202 -2 46 -5 53 -22 53 -18 0 -20 -6 -19 -82 l1 -81 -26 1 c-20 2 -27 -3
-29 -20 -2 -13 -7 -23 -12 -23 -26 0 -1 -129 43 -216 42 -84 49 -118 37 -163
-13 -51 -36 -54 -67 -8 -32 47 -44 85 -49 150 -3 46 0 57 12 57 8 0 17 7 20
15 7 17 -12 45 -30 45 -16 -1 -46 -65 -46 -99 0 -18 -8 -34 -22 -44 -23 -16
-23 -16 -3 -22 30 -9 69 -138 63 -210 -4 -51 -27 -95 -50 -95 -5 0 -19 21 -30
48 -20 45 -26 130 -16 226 4 41 -18 44 -38 5 -27 -54 -32 -81 -22 -144 20
-138 2 -262 -43 -286 -58 -30 -67 221 -11 284 14 16 14 19 -1 34 -21 22 -40 6
-73 -60 -24 -46 -26 -48 -43 -33 -10 9 -26 16 -37 16 -20 0 -60 -44 -88 -98
-19 -36 -19 -36 -48 -21 -35 19 -44 -3 -23 -57 36 -95 -1 -268 -68 -316 -29
-21 -30 -21 -44 -2 -11 14 -14 39 -10 99 5 90 23 142 67 191 32 37 37 58 18
70 -19 12 -92 -78 -112 -137 -22 -69 -33 -227 -17 -257 10 -20 8 -24 -21 -42
-18 -11 -41 -20 -50 -20 -10 0 -36 32 -67 83 -120 197 -207 225 -327 102 -45
-47 -119 -177 -163 -288 -9 -22 -16 -27 -29 -22 -9 4 -41 14 -71 21 -58 14
-73 27 -69 59 3 17 13 21 59 25 84 8 125 54 82 92 -44 39 -109 33 -155 -14
l-29 -30 -22 20 c-34 30 -62 42 -101 42 -33 0 -36 -2 -36 -31 0 -46 47 -89 99
-89 30 0 43 -5 51 -20 14 -26 9 -34 -43 -59 -47 -23 -118 -88 -144 -132 -16
-27 -22 -29 -78 -29 -61 0 -131 -24 -168 -58 -30 -27 -58 -90 -60 -135 l-2
-42 105 0 c94 0 109 3 144 24 l39 25 16 -25 c27 -43 87 -95 137 -119 69 -33
181 -33 244 -1 46 24 79 56 80 79 0 17 -30 15 -51 -4 -74 -67 -249 -51 -326
28 -127 132 -17 347 177 348 67 0 122 -25 132 -60 3 -14 11 -55 16 -92 6 -37
23 -93 38 -124 26 -52 36 -61 104 -98 70 -38 80 -41 155 -41 65 0 90 5 136 26
97 46 161 146 174 271 4 38 11 68 15 68 4 0 34 -12 66 -27 46 -20 80 -27 149
-31 110 -5 123 3 105 68 -15 57 -8 70 36 70 20 0 66 5 101 12 78 14 91 30 68
85 -19 46 -11 53 65 53 53 0 130 26 144 48 3 6 -3 29 -15 52 -12 24 -18 45
-13 50 5 4 33 13 62 19 67 14 132 47 132 67 0 8 -7 31 -15 51 -8 19 -15 37
-15 39 0 2 26 16 57 29 117 52 154 104 98 141 -34 22 -31 36 11 59 19 10 55
37 80 60 52 49 59 88 19 107 -14 6 -25 14 -25 17 0 4 29 36 65 71 64 63 79 95
51 106 -8 3 -17 17 -20 31 -5 19 1 32 29 61 20 20 42 48 50 62 17 33 14 92 -5
98 -42 11 -42 11 -22 39 39 55 71 129 62 143 -5 8 -5 21 1 31 6 13 4 22 -7 34
-17 17 -31 15 -103 -16 -24 -11 -46 -17 -49 -14 -3 3 2 28 12 56 23 63 17 141
-16 207 -32 66 -56 67 -96 5z m67 -50 c17 -60 13 -130 -9 -173 -11 -22 -27
-40 -34 -40 -22 0 -39 66 -33 124 5 50 40 126 58 126 4 0 13 -17 18 -37z m171
-242 c0 -4 -13 -27 -28 -52 -73 -114 -215 -164 -172 -60 16 39 59 78 115 106
43 20 85 23 85 6z m-47 -221 c16 -19 14 -22 -43 -83 -49 -52 -67 -65 -107 -74
-56 -13 -63 -10 -63 24 0 32 59 92 116 117 21 9 46 21 54 26 21 13 24 12 43
-10z m-358 -195 c22 -46 26 -63 19 -88 -13 -43 -30 -44 -68 -3 -58 60 -88 193
-49 214 20 12 56 -33 98 -123z m289 -21 c27 -10 18 -30 -31 -74 -57 -50 -102
-70 -154 -70 -43 0 -49 15 -26 57 32 58 155 108 211 87z m-90 -220 c25 -9 19
-28 -16 -58 -68 -57 -160 -86 -212 -66 -34 13 -33 26 7 64 50 47 170 79 221
60z m-718 -216 c21 -41 15 -187 -9 -235 -54 -104 -97 -75 -97 65 0 60 5 88 24
128 19 42 45 71 63 74 1 0 10 -14 19 -32z m584 9 c50 -17 49 -40 0 -66 -66
-34 -132 -45 -190 -31 -57 14 -65 22 -50 50 28 52 154 76 240 47z m-179 -167
c40 -11 82 -46 76 -63 -6 -19 -97 -45 -158 -46 -56 -1 -149 24 -149 39 0 60
128 99 231 70z m-226 -155 c106 -31 157 -92 90 -106 -93 -20 -219 0 -280 45
-19 14 -19 15 -1 35 37 40 108 50 191 26z m-831 -26 c41 -32 112 -138 158
-236 41 -84 42 -92 43 -183 0 -79 -4 -102 -22 -135 -57 -106 -155 -157 -264
-137 -133 25 -219 140 -219 294 0 71 31 157 99 272 79 134 143 174 205 125z
m534 1 c15 -24 10 -36 -18 -43 -26 -7 -36 14 -20 42 14 26 22 26 38 1z m89
-116 c60 -20 108 -52 125 -82 18 -34 -1 -42 -97 -42 -71 0 -89 4 -153 35 -40
19 -72 41 -72 48 0 47 110 70 197 41z m-201 -128 c57 -26 134 -95 134 -119 0
-26 -122 -23 -194 4 -71 27 -138 84 -134 112 6 42 104 43 194 3z"/>
<path d="M2859 1004 c-14 -9 -39 -37 -55 -63 -25 -40 -29 -56 -29 -116 0 -57
4 -76 23 -103 31 -43 77 -65 133 -66 82 0 149 74 149 167 0 54 -41 139 -82
168 -40 29 -105 35 -139 13z"/>
<path d="M2813 2758 c-26 -12 -32 -58 -10 -76 42 -35 117 -15 117 32 0 47 -55
69 -107 44z m67 -43 c0 -8 -9 -15 -20 -15 -11 0 -20 7 -20 15 0 8 9 15 20 15
11 0 20 -7 20 -15z"/>
<path d="M3457 2653 c-4 -3 -7 -24 -7 -45 0 -54 45 -101 92 -96 31 3 33 6 36
46 3 37 -1 47 -28 72 -30 28 -77 40 -93 23z"/>
<path d="M2418 2569 c-22 -13 -23 -43 -2 -64 22 -21 73 -16 90 10 29 44 -37
84 -88 54z m52 -33 c0 -3 -4 -8 -10 -11 -5 -3 -10 -1 -10 4 0 6 5 11 10 11 6
0 10 -2 10 -4z"/>
<path d="M2524 2474 c-16 -24 -16 -27 3 -52 25 -33 71 -41 90 -16 19 26 16 50
-9 74 -30 28 -64 26 -84 -6z m69 -29 c7 -16 -8 -29 -23 -20 -15 9 -12 35 4 35
8 0 16 -7 19 -15z"/>
<path d="M3351 2251 c-14 -24 -5 -48 20 -56 10 -4 22 -17 25 -31 10 -39 24
-28 23 19 -1 23 0 51 2 62 6 29 -55 35 -70 6z"/>
<path d="M3441 2206 c-12 -14 -5 -26 16 -26 15 0 18 26 4 34 -5 3 -14 0 -20
-8z"/>
<path d="M768 2103 c-8 -10 -19 -31 -22 -48 -7 -29 -8 -29 -21 -10 -28 40 -48
56 -59 45 -7 -7 -7 -17 2 -30 19 -31 14 -49 -15 -56 -42 -10 -54 -23 -43 -44
7 -12 25 -19 65 -22 63 -5 73 -11 55 -33 -11 -13 -8 -15 15 -15 17 0 25 -5 22
-12 -4 -13 -26 -15 -77 -7 -20 3 -25 0 -25 -16 0 -18 8 -20 72 -23 l71 -3 58
-69 c31 -38 62 -71 69 -74 6 -2 29 -35 51 -72 38 -67 132 -171 227 -252 l48
-41 -15 -46 c-57 -167 49 -325 218 -325 238 0 324 310 122 435 -68 42 -157 43
-235 2 -52 -26 -55 -27 -80 -11 -46 30 -202 188 -227 230 -21 35 -23 45 -13
73 16 45 5 81 -25 81 -13 0 -26 -7 -30 -15 -10 -28 -36 -15 -81 43 -45 58 -55
88 -33 110 6 6 12 39 13 72 1 56 0 61 -19 58 -13 -2 -29 -19 -42 -45 -12 -23
-24 -39 -28 -36 -11 12 -6 58 10 81 17 24 16 83 -2 89 -6 2 -17 -4 -26 -14z
m778 -759 c71 -34 110 -112 95 -191 -22 -114 -131 -178 -236 -139 -134 51
-163 226 -53 310 62 47 124 53 194 20z"/>
<path d="M3153 1955 c-3 -9 -3 -18 0 -21 7 -8 47 15 47 26 0 16 -40 11 -47 -5z"/>
<path d="M2864 1949 c-42 -12 -56 -31 -48 -63 8 -35 74 -92 121 -105 46 -13
113 -14 132 -2 35 22 -28 133 -92 162 -46 20 -66 22 -113 8z"/>
<path d="M2528 1850 c-61 -33 -92 -82 -96 -155 -4 -60 -3 -64 24 -82 34 -22
108 -22 152 1 42 22 74 70 79 119 9 95 -79 159 -159 117z m109 -75 c16 -34 16
-38 -1 -69 -21 -40 -63 -66 -108 -66 -40 0 -58 15 -58 47 0 59 61 122 118 123
27 0 35 -5 49 -35z"/>
<path d="M1286 1632 c-11 -34 4 -53 38 -50 27 3 31 7 31 33 0 26 -4 30 -32 33
-24 2 -33 -1 -37 -16z"/>
<path d="M926 1398 c-22 -31 -20 -45 9 -64 23 -15 27 -15 50 0 27 18 31 36 15
67 -14 26 -55 24 -74 -3z"/>
<path d="M1030 1231 c-16 -31 4 -63 37 -59 55 7 55 69 0 76 -18 2 -29 -3 -37
-17z"/>
</g>
</svg>
