<?xml version="1.0" standalone="no"?>
<!DOCTYPE svg PUBLIC "-//W3C//DTD SVG 20010904//EN"
 "http://www.w3.org/TR/2001/REC-SVG-20010904/DTD/svg10.dtd">
<svg version="1.0" xmlns="http://www.w3.org/2000/svg"
 width="500.000000pt" height="500.000000pt" viewBox="0 0 500.000000 500.000000"
 preserveAspectRatio="xMidYMid meet">

<g transform="translate(0.000000,500.000000) scale(0.100000,-0.100000)"
fill="url('#MyGradient')" stroke="none">
<defs>
    <linearGradient id="MyGradient" y2="1">
        <stop offset="0%" stop-color="green"></stop>
        <stop offset="50%" stop-color="#adebb3"></stop>
    </linearGradient>
</defs>
<path d="M1938 4640 c-86 -10 -212 -38 -338 -76 -114 -34 -138 -44 -261 -103
-277 -132 -506 -311 -705 -552 -139 -168 -208 -278 -295 -470 -89 -196 -137
-373 -164 -609 -28 -238 -13 -411 60 -697 78 -309 213 -568 416 -802 77 -89
215 -225 279 -275 53 -41 266 -186 274 -186 3 0 27 -13 53 -29 101 -62 359
-158 493 -185 335 -68 579 -70 874 -10 141 29 181 41 334 101 117 46 332 158
332 174 0 5 -33 9 -72 9 -110 0 -289 37 -391 80 -144 62 -251 133 -361 238
-85 82 -130 137 -174 211 -119 206 -166 374 -165 601 0 190 43 358 132 522
107 199 262 355 460 465 169 94 340 136 541 135 282 -1 536 -104 756 -305 l55
-50 60 59 c34 33 59 67 59 79 0 11 -15 81 -34 155 -31 120 -47 169 -116 340
-28 69 -117 226 -178 315 -161 233 -382 442 -626 590 -82 49 -275 144 -336
164 -304 100 -376 113 -655 116 -126 2 -265 0 -307 -5z m227 -130 c15 -16 16
-25 7 -44 -10 -22 -18 -24 -119 -30 -211 -14 -446 -79 -653 -180 -122 -60
-261 -145 -307 -188 -16 -14 -36 -30 -46 -35 -34 -18 -218 -207 -283 -290
-157 -201 -270 -431 -333 -678 -23 -92 -51 -267 -51 -322 0 -37 -23 -73 -46
-73 -8 0 -21 11 -29 24 -15 22 -15 35 -1 143 34 260 103 479 219 693 279 517
793 882 1375 974 192 31 243 32 267 6z m328 -564 c152 -32 334 -108 437 -182
26 -19 51 -34 54 -34 19 0 190 -157 255 -234 58 -68 72 -91 69 -113 -3 -25 -7
-28 -38 -28 -28 0 -38 6 -57 35 -41 60 -195 209 -276 266 -116 82 -282 158
-422 195 -105 28 -141 33 -282 37 -176 4 -248 -5 -413 -55 -88 -26 -263 -108
-315 -148 -17 -12 -48 -34 -70 -49 -65 -44 -213 -195 -277 -283 -158 -220
-249 -520 -235 -782 11 -223 95 -486 201 -636 20 -27 47 -66 60 -86 46 -68
206 -217 303 -282 97 -64 181 -107 300 -153 69 -26 270 -64 342 -64 52 0 71
-13 71 -46 0 -40 -18 -44 -141 -34 -231 19 -510 129 -693 274 -252 200 -433
487 -498 791 -28 133 -35 352 -14 495 34 238 136 460 301 661 57 69 240 238
259 239 4 0 29 15 55 34 132 96 346 172 596 210 76 12 313 -4 428 -28z m-515
-238 c16 -16 15 -53 0 -66 -7 -5 -38 -15 -68 -21 -66 -14 -235 -99 -322 -161
-212 -153 -383 -419 -413 -645 -8 -59 -28 -95 -53 -95 -47 0 -53 53 -21 175
52 200 145 361 298 513 71 71 254 212 275 212 3 0 33 13 68 30 131 62 212 82
236 58z"/>
<path d="M3160 3034 c-14 -2 -59 -9 -100 -15 -213 -32 -435 -176 -599 -388
-56 -72 -139 -246 -159 -335 -24 -102 -23 -406 1 -496 22 -86 115 -271 169
-339 171 -214 418 -354 676 -382 237 -25 480 38 680 177 35 24 66 44 70 44 4
0 31 -24 60 -53 46 -47 52 -57 52 -95 0 -24 6 -55 14 -70 12 -23 217 -230 442
-445 l61 -59 59 63 c32 35 89 95 127 133 37 39 67 75 67 81 0 15 -67 84 -245
251 -82 78 -176 167 -208 198 -60 59 -89 72 -137 62 -25 -5 -37 2 -86 48 l-57
53 33 47 c37 54 100 187 123 261 30 95 40 199 34 367 -5 152 -22 255 -46 281
-13 13 -155 -129 -148 -148 18 -45 29 -158 24 -239 -8 -132 -31 -218 -90 -336
-46 -93 -63 -116 -157 -210 -88 -88 -119 -112 -190 -147 -114 -56 -158 -69
-273 -83 -72 -8 -122 -9 -195 0 -125 14 -176 30 -292 94 -158 85 -313 258
-369 410 -49 132 -65 307 -40 428 38 186 88 285 207 412 150 161 323 241 542
253 215 11 403 -54 571 -198 l56 -48 63 60 63 60 -23 24 c-97 103 -314 224
-460 255 -87 20 -269 33 -320 24z"/>
<path d="M4217 2853 c-79 -71 -197 -185 -712 -684 -220 -214 -307 -294 -319
-297 -7 -1 -71 58 -143 133 -121 126 -133 135 -167 135 -21 0 -46 -5 -57 -10
-22 -12 -49 -61 -49 -89 0 -30 106 -154 306 -358 52 -55 66 -63 97 -63 32 0
48 10 124 82 151 141 452 427 588 558 230 224 460 440 497 469 82 65 46 181
-57 181 -41 0 -51 -5 -108 -57z"/>
<path d="M3080 2751 c-153 -43 -224 -84 -335 -196 -83 -82 -132 -160 -171
-270 -27 -75 -29 -90 -29 -230 1 -146 2 -153 34 -238 59 -156 145 -265 282
-356 174 -117 382 -148 595 -90 91 25 115 36 204 95 137 91 236 228 291 404
20 62 24 97 24 202 0 69 -3 130 -8 134 -4 4 -58 -42 -120 -102 -339 -331 -543
-522 -580 -544 -82 -49 -195 -21 -261 64 -15 20 -40 48 -55 63 -16 16 -78 82
-138 149 -129 142 -145 178 -119 268 18 61 33 77 100 107 54 23 113 22 165 -5
15 -8 70 -60 121 -115 52 -56 98 -101 103 -101 8 0 134 118 510 479 l77 75
-22 24 c-77 83 -211 157 -340 187 -87 20 -247 18 -328 -4z"/>
<path d="M4723 659 c-70 -71 -129 -134 -131 -139 -6 -15 83 -60 119 -60 85 1
192 93 205 175 8 56 -1 93 -31 128 -13 15 -26 27 -29 27 -2 0 -62 -59 -133
-131z"/>
</g>
</svg>
