<?xml version="1.0" standalone="no"?>
<!DOCTYPE svg PUBLIC "-//W3C//DTD SVG 20010904//EN"
 "http://www.w3.org/TR/2001/REC-SVG-20010904/DTD/svg10.dtd">
<svg version="1.0" xmlns="http://www.w3.org/2000/svg"
 width="500.000000pt" height="499.000000pt" viewBox="0 0 500.000000 499.000000"
 preserveAspectRatio="xMidYMid meet">

<g transform="translate(0.000000,499.000000) scale(0.100000,-0.100000)"
fill="url('#MyGradient')" stroke="none">
<defs>
    <linearGradient id="MyGradient" y2="1">
        <stop offset="0%" stop-color="green"></stop>
        <stop offset="50%" stop-color="#adebb3"></stop>
    </linearGradient>
</defs>
<path d="M1982 4578 l3 -113 110 0 110 0 3 113 3 112 -116 0 -116 0 3 -112z"/>
<path d="M3115 4606 c-39 -18 -68 -45 -83 -79 -9 -20 -12 -114 -12 -334 0
-230 -3 -319 -14 -362 -16 -62 -31 -201 -22 -201 3 0 18 21 33 48 26 44 85
132 108 159 181 216 380 371 572 444 34 13 36 14 -67 -61 -252 -185 -461 -452
-580 -739 l-30 -74 0 -426 c0 -248 -5 -453 -11 -491 -19 -122 -75 -210 -188
-293 -250 -185 -370 -454 -371 -832 0 -289 81 -608 213 -831 66 -112 207 -258
289 -298 124 -61 230 -71 341 -32 87 31 151 72 221 144 167 170 272 404 337
747 20 107 18 429 -4 530 -59 271 -154 422 -366 582 -79 60 -134 137 -158 223
-16 59 -18 114 -18 555 l0 490 35 3 c66 6 222 53 304 92 91 42 200 119 260
183 160 172 265 426 291 704 l7 71 -48 8 c-63 9 -278 -3 -379 -22 -143 -27
-323 -97 -420 -163 -16 -12 -33 -21 -37 -21 -5 0 -8 37 -8 82 0 107 -23 158
-84 187 -49 24 -69 25 -111 7z m-457 -3228 c8 -8 12 -47 12 -107 0 -103 13
-242 31 -331 15 -74 57 -217 75 -257 8 -17 14 -34 14 -38 0 -3 18 -43 40 -87
46 -92 31 -87 -34 11 -127 193 -191 386 -216 655 -9 103 -8 122 5 142 17 26
53 32 73 12z"/>
<path d="M1980 3420 c0 -907 0 -920 -20 -940 -27 -27 -75 -26 -94 2 -14 20
-16 104 -16 715 l0 693 -75 0 -75 0 0 -698 c0 -664 -1 -700 -18 -715 -23 -21
-66 -22 -86 -1 -14 14 -16 81 -16 590 l0 575 -77 -3 -78 -3 -3 -569 c-2 -627
0 -606 -63 -606 -61 0 -59 -14 -59 505 0 300 -4 475 -10 477 -5 2 -56 2 -113
0 l-104 -3 -6 -202 c-4 -111 -14 -407 -23 -657 -20 -561 -15 -618 67 -770 36
-66 101 -137 190 -208 106 -83 151 -154 175 -279 11 -59 14 -182 14 -578 l0
-504 33 -34 c68 -73 178 -65 227 16 19 31 20 55 20 537 0 548 4 589 55 693 32
64 67 101 167 179 118 92 186 192 223 328 25 96 29 258 16 809 -6 273 -14 738
-17 1034 l-7 537 -113 0 -114 0 0 -920z"/>
<path d="M1700 4095 l0 -85 80 0 80 0 0 85 0 85 -80 0 -80 0 0 -85z"/>
<path d="M1420 3845 l0 -85 80 0 80 0 0 85 0 85 -80 0 -80 0 0 -85z"/>
<path d="M1080 3660 l0 -101 108 3 107 3 3 98 3 97 -111 0 -110 0 0 -100z"/>
</g>
</svg>
