<?xml version="1.0" standalone="no"?>
<!DOCTYPE svg PUBLIC "-//W3C//DTD SVG 20010904//EN"
 "http://www.w3.org/TR/2001/REC-SVG-20010904/DTD/svg10.dtd">
<svg version="1.0" xmlns="http://www.w3.org/2000/svg"
 width="500.000000pt" height="500.000000pt" viewBox="0 0 500.000000 500.000000"
 preserveAspectRatio="xMidYMid meet">

<g transform="translate(0.000000,500.000000) scale(0.100000,-0.100000)"
fill="url('#MyGradient')" stroke="none">
<defs>
    <linearGradient id="MyGradient" y2="1">
        <stop offset="0%" stop-color="darkred"></stop>
        <stop offset="33.33%" stop-color="purple"></stop>
        <stop offset="66.66%" stop-color="orange"></stop>
    </linearGradient>
</defs>
<path d="M2560 4444 c-207 -20 -481 -94 -668 -180 -359 -167 -671 -442 -881
-777 -125 -201 -243 -504 -267 -689 -7 -48 -6 -49 17 -44 13 3 92 12 174 21
83 8 236 24 340 35 105 11 251 27 325 35 146 15 374 40 510 55 47 5 168 18
270 29 230 26 720 78 860 92 58 6 117 17 133 25 15 8 44 39 63 69 90 141 137
163 374 178 188 11 664 -4 729 -23 19 -5 37 -8 39 -5 8 8 -118 229 -181 317
-216 301 -468 514 -792 669 -271 129 -520 188 -825 194 -96 1 -195 1 -220 -1z"/>
<path d="M4470 3214 c-19 -2 -73 -8 -120 -13 -47 -6 -183 -20 -303 -32 -187
-19 -220 -25 -228 -41 -11 -21 4 -58 25 -58 7 0 59 5 117 10 57 6 229 21 382
34 152 12 280 26 284 30 4 3 -1 22 -10 41 -16 33 -19 35 -64 33 -27 0 -64 -3
-83 -4z"/>
<path d="M4325 3055 c-143 -18 -309 -38 -368 -45 -112 -14 -139 -26 -130 -59
7 -28 20 -30 109 -20 78 9 370 38 617 61 140 13 131 7 106 76 -11 28 -9 28
-334 -13z"/>
<path d="M4630 2953 c-14 -2 -74 -10 -135 -18 -438 -58 -624 -85 -642 -92 -17
-7 -17 -47 0 -62 10 -8 36 -8 93 -1 178 23 675 79 702 80 29 0 7 -21 -50 -49
-187 -88 -671 -203 -863 -205 -103 -1 -113 1 -155 26 -25 15 -74 53 -110 83
-58 50 -68 55 -112 55 -79 0 -170 -48 -436 -234 -428 -299 -853 -692 -1030
-953 -49 -72 -102 -178 -132 -263 -31 -87 -34 -265 -7 -355 42 -139 167 -293
304 -374 172 -102 331 -140 623 -148 244 -6 378 8 573 62 159 43 248 79 406
161 510 265 890 737 1031 1279 56 212 64 282 64 520 -1 200 -3 232 -28 349
-14 71 -29 133 -32 137 -5 9 -18 9 -64 2z m-1346 -1334 c-157 -227 -442 -683
-567 -910 l-18 -33 -195 294 c-107 161 -193 295 -191 297 5 4 245 -149 314
-199 28 -21 55 -38 60 -38 5 0 20 14 32 31 24 32 196 233 260 304 120 133 177
192 283 293 65 61 120 112 123 112 2 0 -43 -68 -101 -151z"/>
<path d="M100 2638 c3 -4 115 -52 250 -108 135 -57 272 -115 306 -131 l61 -27
7 -95 c9 -140 34 -264 82 -421 149 -483 521 -931 969 -1166 66 -35 74 -37 45
-14 -88 71 -206 196 -254 269 -98 149 -136 272 -136 437 0 151 33 257 123 396
l45 69 83 23 c46 13 158 42 249 66 181 46 189 52 42 29 -152 -24 -516 -75
-518 -72 -2 1 59 64 135 140 l138 138 94 23 c52 13 139 33 194 46 55 12 114
26 130 30 17 5 49 12 73 15 24 4 41 9 39 12 -3 2 -70 -5 -149 -16 -78 -11
-213 -29 -298 -41 -85 -11 -182 -25 -215 -30 -145 -23 -128 -25 -330 45 -105
37 -215 75 -245 86 -30 11 -62 22 -70 25 -8 4 32 14 90 24 123 21 643 106 945
155 116 18 284 45 375 60 91 15 167 29 170 32 3 3 -13 3 -35 0 -46 -8 -277
-36 -590 -72 -121 -14 -254 -29 -295 -35 -41 -5 -156 -19 -255 -30 -99 -12
-275 -32 -391 -47 l-211 -25 -314 102 c-173 57 -321 105 -329 108 -8 3 -13 3
-10 0z"/>
</g>
</svg>
